<?xml version="1.0" encoding="UTF-8"?>
<!DOCTYPE svg PUBLIC "-//W3C//DTD SVG 1.1//EN" "http://www.w3.org/Graphics/SVG/1.1/DTD/svg11.dtd">
<svg xmlns="http://www.w3.org/2000/svg" version="1.1" width="230px" height="230px" style="shape-rendering:geometricPrecision; text-rendering:geometricPrecision; image-rendering:optimizeQuality; fill-rule:evenodd; clip-rule:evenodd" xmlns:xlink="http://www.w3.org/1999/xlink">
<g><path style="opacity:0.986" fill="#0093d7" d="M 210.5,113.5 C 196.086,105.098 181.42,97.0983 166.5,89.5C 152.873,81.5629 139.206,73.5629 125.5,65.5C 124.334,48.5098 124.167,31.5098 125,14.5C 153.333,30.8333 181.667,47.1667 210,63.5C 210.5,80.1633 210.667,96.83 210.5,113.5 Z"/></g>
<g><path style="opacity:0.991" fill="#221b4a" d="M 76.5,138.5 C 73.9837,138.755 71.6504,139.589 69.5,141C 57.6079,148.11 45.6079,154.943 33.5,161.5C 32.8333,145.5 32.1667,129.5 31.5,113.5C 59.6072,96.9409 87.9405,80.6076 116.5,64.5C 117.666,81.1567 117.833,97.8233 117,114.5C 103.354,122.4 89.8543,130.4 76.5,138.5 Z"/></g>
<g><path style="opacity:0.984" fill="#221b4a" d="M 166.5,89.5 C 181.42,97.0983 196.086,105.098 210.5,113.5C 182.309,130.519 153.809,147.185 125,163.5C 124.167,146.49 124.334,129.49 125.5,112.5C 139.059,104.556 152.726,96.8892 166.5,89.5 Z"/></g>
<g><path style="opacity:0.863" fill="#1a3b6f" d="M 31.5,113.5 C 32.1667,129.5 32.8333,145.5 33.5,161.5C 33.1583,162.338 32.4916,162.672 31.5,162.5C 31.5,146.167 31.5,129.833 31.5,113.5 Z"/></g>
<g><path style="opacity:0.985" fill="#0093d7" d="M 76.5,138.5 C 89.8059,146.155 103.139,153.822 116.5,161.5C 117.666,178.49 117.833,195.49 117,212.5C 89.752,197.126 62.5853,181.626 35.5,166C 33.9069,165.051 32.5736,163.885 31.5,162.5C 32.4916,162.672 33.1583,162.338 33.5,161.5C 45.6079,154.943 57.6079,148.11 69.5,141C 71.6504,139.589 73.9837,138.755 76.5,138.5 Z"/></g>
</svg>
