<?xml version="1.0" encoding="UTF-8"?>
<svg width="50" id="Calque_1" data-name="Calque 1" xmlns="http://www.w3.org/2000/svg" viewBox="0 0 161.16 46.32">
  <defs>
    <style>
      .cls-1 {
        fill: #fff;
      }

      .cls-1, .cls-2 {
        stroke-width: 0px;
      }

      .cls-2 {
        fill: #0094d8;
      }
    </style>
  </defs>
  <g id="Groupe_240" data-name="Groupe 240">
    <g id="Groupe_239" data-name="Groupe 239">
      <path id="Tracé_22307" data-name="Tracé 22307" class="cls-2" d="m0,34.55l19.95,11.52v-11.52L0,23.03v11.52Z"/>
      <path id="Tracé_22308" data-name="Tracé 22308" class="cls-1" d="m0,23.03v11.52l19.95-11.52v-11.51L0,23.03Z"/>
      <path id="Tracé_22309" data-name="Tracé 22309" class="cls-1" d="m21.63,34.55l19.95-11.52v-11.51l-19.95,11.51v11.52Z"/>
      <path id="Tracé_22310" data-name="Tracé 22310" class="cls-2" d="m21.63,0v11.52l19.95,11.52v-11.52L21.63,0Z"/>
    </g>
    <g id="Groupe_238" data-name="Groupe 238">
      <path id="Tracé_22311" data-name="Tracé 22311" class="cls-1" d="m73.87,36.97h-15.81c.58,2.66,2.98,4.52,5.69,4.42,2.09,0,4.1-.84,5.57-2.33l3.32,3.36c-2.43,2.6-5.86,4.02-9.42,3.89-7.04,0-11.51-4.51-11.51-11.18s4.63-11.3,11.35-11.3c7.74,0,11.35,5.12,10.81,13.15m-5.9-3.73c.11-2.54-1.86-4.69-4.4-4.8-.16,0-.32,0-.48,0-2.79,0-4.67,1.88-5.16,4.79h10.04Z"/>
      <path id="Tracé_22312" data-name="Tracé 22312" class="cls-1" d="m104.06,31.73c0,8.44-6.27,14.33-15.32,14.33h-11.92v-28.67h12.16c8.89,0,15.07,5.86,15.07,14.34m-6.59.04c0-5.28-3.69-8.93-8.6-8.93h-5.57v17.77h5.86c4.79,0,8.32-3.6,8.32-8.85"/>
      <path id="Tracé_22313" data-name="Tracé 22313" class="cls-1" d="m124.57,46.07l-4.55-8.19h-6.59v8.19h-6.47v-28.67h12.45c7.5,0,11.76,3.6,11.76,9.95,0,4.42-1.88,7.62-5.37,9.26l6.1,9.46h-7.33Zm-11.14-13.6h5.98c3.56,0,5.61-1.64,5.61-4.92s-2.05-4.79-5.61-4.79h-5.98v9.71Z"/>
      <path id="Tracé_22314" data-name="Tracé 22314" class="cls-1" d="m138.79,17.39l7.82,21.63,7.86-21.63h6.68l-11.39,28.67h-6.68l-11.26-28.67h6.96Z"/>
    </g>
  </g>
</svg>